# xmcd
#
# Track frame offsets:
#	182
#	15335
#	30155
#	48442
#	59725
#	76010
#	90112
#	105825
#	124542
#	139175
#
# Disc length: 2114 seconds
#
# Revision: 0
# Processed by: cddbd v1.5.2PL0 Copyright (c) Steve Scherf et al.
# Submitted via: EasyCDDAExtractor 9.1.3.1
#
DISCID=6308400a
DTITLE=Brandon Jenkins - Tough Times Don't Last
DYEAR=1994
DGENRE=Country
TTITLE0=Tough Times Don't Last
TTITLE1=I Don't Wanna Be Alone Tonight
TTITLE2=Best Man
TTITLE3=Like You Did
TTITLE4=Don't Feel Like Feelin'
TTITLE5=Midnight Train
TTITLE6=I Won't Make You Lie
TTITLE7=Summer Nights
TTITLE8=Love Life Me Up
TTITLE9=Pull Down The Shades
EXTD=
EXTT0=
EXTT1=
EXTT2=
EXTT3=
EXTT4=
EXTT5=
EXTT6=
EXTT7=
EXTT8=
EXTT9=
PLAYORDER=
